<svg xmlns="http://www.w3.org/2000/svg" height="132" width="435" viewBox="-2 15 435 132"><g fill="#00dc0f" stroke="#fff" stroke-width="30"><path d="M391.32 112.02c.85 3.8.01 6.68-1.04 8.6a14.85 14.85 0 0 1-13.33 8.22c-1.08 0-2.21-.11-3.44-.35h-4.45c-1.16 0-3.35-.07-8.8-.68a74.25 74.25 0 0 0-8.12-.55h-5.41c-.14.01-.63.04-1.8.16-1.81.2-3.2.28-4.36.28-3.38 0-6.4-.7-8.98-2.06l-.5-.28a12.06 12.06 0 0 1-5.76-10.7c0-3.53 1.31-6.8 3.69-9.2a14.67 14.67 0 0 1 3.95-2.85c-3.3-3.6-4.29-8.7-2.5-13.53a13.94 13.94 0 0 1 3.03-4.82 12.93 12.93 0 0 1-9.04-11.92c-.5-3.75.96-7.57 4-10a18.78 18.78 0 0 1 11.23-4.13h3.05c6.58-.12 17.74-1.74 33.17-4.83 1.99-.44 4.05-.37 6.24.26 1.01.29 3.31.96 5.37 2.98.44.42.83.88 1.18 1.37a16.67 16.67 0 0 1 2.82 6.33c.2 1 .28 2.02.2 3.03-.11 1.88-.04 3.96.22 6.18.33 2.69-.36 5.4-1.91 7.61a14.48 14.48 0 0 1-10.19 6.01l.02.55v.84c3.07.3 5.9 1.6 8.06 3.74 3.55 3.58 3.58 8 3.42 10.27a17.57 17.57 0 0 1-.05 6.05l-.06.39v2.65l.1.38z"/><path d="M343.2 105.32c-.64 6.77-2.67 11.92-6.22 15.66-2.06 2.18-5.12 3.9-10.22 5.73l-.31.11c-2.44.78-5.1 1.18-7.92 1.18-4.28 0-8.25-.84-11.81-2.5-5.27-2.46-7.9-5.9-9.2-8.8-.18-.3-.38-.63-.57-.98a9.77 9.77 0 0 1-1.1-3.14c-.25-1.54-.67-3.87-1.23-6.95-.1-.6-.16-1.19-.16-1.8v-7.8c0-.97.08-2.38.66-6.22.57-3.76.81-4.93 1.26-6.08 1.17-3.13 4.7-12.34 13.22-14.16 2.8-.6 5.95-.67 8.92-.35a11.77 11.77 0 0 1 10.16-5.4c7.43 0 11.54 4.9 12.31 9.74.08.52.12 1.04.12 1.56v12.5c0 .82-.1 1.6-.29 2.36a10.75 10.75 0 0 1 2.74 6.99 69.5 69.5 0 0 1-.37 8.35z"/></g><path fill="#00dc0f" d="M391.32 112.02c.85 3.8.01 6.68-1.04 8.6a14.85 14.85 0 0 1-13.33 8.22c-1.08 0-2.21-.11-3.44-.35h-4.45c-1.16 0-3.35-.07-8.8-.68a74.25 74.25 0 0 0-8.12-.55h-5.41c-.14.01-.63.04-1.8.16-1.81.2-3.2.28-4.36.28-3.38 0-6.4-.7-8.98-2.06l-.5-.28a12.06 12.06 0 0 1-5.76-10.7c0-3.53 1.31-6.8 3.69-9.2a14.67 14.67 0 0 1 3.95-2.85c-3.3-3.6-4.29-8.7-2.5-13.53a13.94 13.94 0 0 1 3.03-4.82 12.93 12.93 0 0 1-9.04-11.92c-.5-3.75.96-7.57 4-10a18.78 18.78 0 0 1 11.23-4.13h3.05c6.58-.12 17.74-1.74 33.17-4.83 1.99-.44 4.05-.37 6.24.26 1.01.29 3.31.96 5.37 2.98.44.42.83.88 1.18 1.37a16.67 16.67 0 0 1 2.82 6.33c.2 1 .28 2.02.2 3.03-.11 1.88-.04 3.96.22 6.18.33 2.69-.36 5.4-1.91 7.61a14.48 14.48 0 0 1-10.19 6.01l.02.55v.84c3.07.3 5.9 1.6 8.06 3.74 3.55 3.58 3.58 8 3.42 10.27a17.57 17.57 0 0 1-.05 6.05l-.06.39v2.65l.1.38z"/><path fill="#fff" d="M275.02 141.94c-3.66.45-5.94.45-6.86.91-1.83.92-5.94 1.83-10.97 1.83-6.4 0-12.35-2.29-17.38-5.94h-3.66c-1.37 0-2.28 0-3.65-.46-5.03 1.83-9.6 1.83-12.35 1.83h-.91c-6.4.46-12.8-.92-18.3-3.66a23.23 23.23 0 0 1-7.77 1.37l-16.92.46a29.15 29.15 0 0 1-20.12-7.77c-2.28 0-4.57-.46-6.4-.92-2.74 3.2-6.4 5.95-10.97 8.23a33.73 33.73 0 0 1-27.44.92c-.91-.46-2.29-.92-3.2-1.38l-10.52 1.38h-3.2c-1.37.45-2.29 1.37-3.2 1.83-6.86 3.2-13.26 3.2-16 3.2h-2.3c-7.76 0-15.54-2.29-21.48-6.4-1.83.45-4.12.9-5.95.9a31.07 31.07 0 0 1-14.63 5.04h-1.83a28.89 28.89 0 0 1-28.8-26.52v-.46c0-2.29-.46-7.32 0-12.8 0-2.75.45-6.86.45-7.78 0-3.65.92-7.31 2.29-10.97-.92-3.66-.46-7.32 0-10.98v-1.37c.45-3.2 1.37-9.6 4.57-16 5.94-10.98 16.92-17.84 29.26-17.84a25.36 25.36 0 0 1 12.8-3.2h1.38a28.79 28.79 0 0 1 22.4 12.35A28.96 28.96 0 0 1 88 40.88c10.97-1.37 20.12-1.83 27.9-.46 4.1-3.65 9.6-6.4 15.08-6.86l11.9-1.82h3.65c6.86 0 13.72 2.74 19.2 7.31h.92l17.38-.46c7.31 0 13.71-.45 15.09-.45h2.28a29.7 29.7 0 0 1 18.3 6.4 29.1 29.1 0 0 1 17.37-5.49H243c4.58-2.74 9.6-4.57 15.1-4.57l14.63-.46h.45c15.55 0 28.35 12.8 28.81 28.35 0 7.32-2.29 13.72-6.86 19.2v13.27c4.12 4.57 6.4 10.52 6.86 16.92.92 15.54-10.97 28.8-26.98 30.18z"/><path fill="#f9a83a" d="M274.1 125.48c-5.94.45-9.6.91-10.51 1.37l-.46.45c-1.37.46-3.2 1.38-5.48 1.38-2.75 0-5.95-.92-8.24-3.2-.91-.92-1.82-1.83-2.28-2.75H236.6a9.22 9.22 0 0 1-5.03-1.37c-.46.46-1.37.46-1.83.91-3.66 1.83-6.86 1.83-9.14 1.83h-2.29c-6.86 0-12.35-2.28-16-6.4a12.5 12.5 0 0 1-8.7 3.66l-16.91.46c-5.95 0-11.43-4.58-12.35-10.06-2.28 1.37-4.57 2.28-7.31 2.28-2.75 0-5.5-.91-7.78-2.28-.45-.46-.91-.92-1.37-.92-1.37.92-3.2.92-5.03.92h-1.37c-1.83 5.48-5.03 9.14-10.06 11.43-2.29.91-5.03 1.83-7.32 1.83-2.28 0-5.03-.46-7.31-1.37a16.44 16.44 0 0 1-5.49-3.66c-.91.46-1.83.46-2.74.91l-13.26 1.83h-1.83c-1.38 0-2.29 0-3.66-.46-1.83 1.83-4.12 2.75-5.95 3.66-3.65 1.83-6.86 1.83-9.14 1.83h-2.29c-8.23 0-14.63-3.66-18.29-8.69a24.23 24.23 0 0 1-12.35 3.66h-2.74c0 .46-.46.46-.46.92-2.28 2.28-5.48 4.11-8.68 4.11H29c-6.4 0-11.89-5.03-12.35-11.89v-.45c0-2.3-.45-6.4 0-10.98 0-3.2.46-8.23.46-8.23 0-3.2 1.37-5.94 3.2-8.23-1.83-3.66-2.28-7.77-1.37-12.35v-.91c.46-2.74.92-6.86 2.74-10.98 3.2-5.94 9.15-9.14 16-9.14h3.21c2.29-1.83 5.03-3.2 8.23-3.2 6.86 0 12.35 5.94 12.35 12.8v5.03a21.36 21.36 0 0 1 7.77-1.37c1.37 0 2.29 0 3.66.46a11.88 11.88 0 0 1 7.32-4.12c.45-.91.91-1.37 1.37-2.28a12.13 12.13 0 0 1 8.23-5.03c2.74-.46 8.23-.92 14.63-.92 7.32 0 13.26.92 17.83 3.2 1.38-5.03 5.03-8.69 10.52-9.6l11.89-1.83h1.83c3.66 0 6.86 1.37 9.14 4.12.92.91 2.3 2.74 2.75 4.11l.46 1.37c2.28-1.37 4.57-2.28 7.31-2.28l17.84-.46c8.68 0 16.46-.46 16.46-.92h.91c3.2 0 6.86 1.38 9.15 3.66a12.58 12.58 0 0 1 3.66 6.86h.91c1.37 0 2.29 0 3.66.46a11.88 11.88 0 0 1 7.31-4.12c2.3-3.2 6.4-5.94 10.98-5.94h11.89a12.15 12.15 0 0 1 9.6-4.57h14.63c6.86 0 12.35 5.48 12.8 12.34 0 5.03-2.74 9.6-6.85 11.43v27.9c3.66 1.83 6.4 5.94 6.86 10.52.45 6.85-5.03 12.8-11.9 13.26z"/><path fill="#f9a83a" d="m153.39 85.7-9.15 1.37 3.2-16.47z"/><path fill="#fff" d="M38.16 86.6c5.48.92 16.92 2.75 16.92 14.18 0 3.2-1.83 6.86-4.58 9.15-3.2 2.74-7.31 4.11-11.43 3.2a17.36 17.36 0 0 1-7.77-3.2v5.03a2.95 2.95 0 0 1-2.75 2.74 2.95 2.95 0 0 1-2.74-2.74c0-.46-.46-4.57 0-10.06.46-3.2.46-8.69.46-8.69A2.95 2.95 0 0 1 29 93.47a2.95 2.95 0 0 1 2.74 2.74v.92c0 1.37.46 3.65.92 5.48.91 1.83 3.66 3.2 4.57 3.66.92 0 1.37.46 2.29.46 2.74.46 5.49 0 7.31-1.83a6.32 6.32 0 0 0 2.75-5.03c0-4.57-5.03-5.95-12.35-7.32-6.86-1.37-9.6-6.86-8.69-15.54v-.92c.46-4.57 1.38-12.35 10.06-10.97 3.2 0 5.95 2.28 8.23 4.57v-5.03a2.95 2.95 0 0 1 2.75-2.74 2.95 2.95 0 0 1 2.74 2.74c0 .46-.91 17.83-.91 17.83-.46 1.37-1.83 2.75-3.2 2.29-1.38-.46-2.29-1.37-2.29-2.29v-1.83c-.46-1.37-.46-2.74-1.37-4.57-.92-2.74-2.75-4.11-3.66-5.03-.91-.91-1.83-1.37-2.74-1.37-2.75 0-3.2 1.37-4.12 6.86v.91c-.91 6.4.92 8.7 4.12 9.15m75.98-6.94c1.38-1.83 2.29-3.66 2.29-4.57v-.92c-1.37-2.29-7.77-2.74-15.09-2.74v12.8a76.31 76.31 0 0 0 8.69-2.29c.46 0 1.83-.45 2.28-.91a6.31 6.31 0 0 0 1.83-1.37m16.84 23.86c1.37.45 2.29 1.83.46 2.74-.92 4.12-2.74 5.49-5.03 6.86-2.74 1.37-5.03.46-6.86 0-2.29-.92-3.66-3.2-4.11-4.12-.92-2.28-1.38-7.77-1.38-9.14-.45-6.86-1.37-9.6-2.28-10.98a2.51 2.51 0 0 0-2.29-1.37h-.91a34.25 34.25 0 0 1-7.32 1.83v16l4.12-.45c1.37-.46 3.2.91 3.2 2.28.45 1.38-.92 3.2-2.29 3.2l-13.26 1.83c-1.37.46-3.2-.91-3.2-2.28-.46-1.37.91-3.2 2.28-3.2l3.66-.46v-16H94.4a2.95 2.95 0 0 1-2.74-2.75 2.95 2.95 0 0 1 2.74-2.74h1.37v-12.8c-1.37 0-2.74.45-4.11.45-1.37.46-3.2-.91-3.2-2.28-.46-1.38.91-3.2 2.28-3.2 6.4-.92 26.07-3.2 30.64 4.57 1.83 3.2.91 6.86-2.29 11.43 0 0-1.37 1.37-2.74 2.29 2.29 2.28 4.12 6.86 4.12 15.09 0 2.28.45 5.94.91 6.86.46.45.91 1.37.91 1.37 1.38.45 2.29.91 2.75.45.45-.45 1.37-.45 2.28-3.65a3.11 3.11 0 0 1 3.66-1.83m99.69-8.7c1.37 0 2.74.92 2.74 1.84v4.57c-.46.92-.91 4.12-1.83 5.95-.91 1.37-1.37 2.28-2.28 3.2a10.8 10.8 0 0 1-4.12 2.74c-1.83.91-3.66.91-5.49.91h-1.37c-10.06 0-13.26-8.23-13.72-12.34V88.9c.46-6.86 2.75-10.98 5.95-13.27 4.11-2.74 9.6-.45 10.97.46 1.37.92 2.75 1.37 3.66 2.29v-5.03a2.95 2.95 0 0 1 2.74-2.75 2.95 2.95 0 0 1 2.75 2.75v12.34c0 1.38-.46 2.29-1.83 2.75-1.37 0-2.75-.46-3.2-1.37-.46 0-2.75-4.12-6.4-5.5-3.2-.9-5.03-1.36-6.4-.45-1.84 1.37-2.75 4.57-3.2 9.15v11.89c0 1.37.9 7.31 8.22 6.85h1.83c1.83 0 2.29 0 3.2-.45.92-.46 1.83-.92 2.29-1.37.91-.92 1.37-1.38 1.83-2.3.46-.45.91-2.28.91-3.65v-3.66a2.95 2.95 0 0 1 2.75-2.74m45.27 18.29c0 1.37-.92 2.74-2.29 3.66-6.4.45-11.89.91-13.26 1.83-1.83.45-3.2.91-4.12 0a2.42 2.42 0 0 1-.45-3.66c1.37-1.83 4.11-1.83 7.77-2.75V91.18l-16.46 2.74v14.18h4.57a2.95 2.95 0 0 1 2.74 2.74 2.95 2.95 0 0 1-2.74 2.75l-15.09-.46a2.95 2.95 0 0 1-2.74-2.74 2.95 2.95 0 0 1 2.74-2.75h4.57V70.6h-4.57a2.95 2.95 0 0 1-2.74-2.74 2.95 2.95 0 0 1 2.74-2.74h14.63a2.95 2.95 0 0 1 2.75 2.74 2.95 2.95 0 0 1-2.75 2.74h-4.57v17.38l16.46-2.74v-19.2h-4.57a2.95 2.95 0 0 1-2.74-2.75 2.95 2.95 0 0 1 2.74-2.75l14.63-.45a2.95 2.95 0 0 1 2.75 2.74 2.95 2.95 0 0 1-2.75 2.74h-4.11c.45 31.1.45 40.7.45 45.27 1.38-.45 2.75-.45 3.66-.45a2.95 2.95 0 0 1 2.75 2.74"/><path fill="#fff" d="m153.39 85.7-5.95-15.1-3.2 16.47zm15.09 5.94c1.37-.46 2.74.46 3.2 1.37a3.11 3.11 0 0 1-1.83 3.66c-5.03 1.83-10.06 4.11-11.43 5.94-.92.92-2.75 1.37-4.12.46-.91-.91-1.37-2.29-.45-3.66 1.37-1.37 2.28-1.83 4.57-3.2l-2.75-6.86-12.8 2.29-.46 4.11c1.83 0 2.75 1.38 2.75 2.75 0 1.83-1.37 2.74-2.75 2.74l-13.71-.46c-1.83 0-2.75-1.37-2.75-2.74 0-1.83 1.37-2.74 2.75-2.74l8.23.45c1.37-6.4 5.48-26.98 6.4-32-3.66.45-8.23.9-8.23.9a2.5 2.5 0 0 1-3.2-2.28 2.5 2.5 0 0 1 2.28-3.2l11.9-1.37c.9 0 1.82.46 2.28.91.46 0 .91.92.91 1.38l10.52 25.15 3.66 8.68c2.74-1.37 4.11-1.82 5.03-2.28"/><path fill="#fff" d="M201.4 63.74c.92 0 1.83.46 1.83 1.38.92.91.92 1.37.92 2.28-.46 3.66-.46 10.06-.46 10.06 0 .92-.46 2.29-1.37 2.75-1.38.91-2.75.45-3.66-.92 0-.46-.46-1.37-.46-4.11v-5.5c-2.74 0-6.86.47-11.43.47v36.12h5.49a2.95 2.95 0 0 1 2.74 2.74 2.95 2.95 0 0 1-2.74 2.75l-16.92.45a2.95 2.95 0 0 1-2.75-2.74 2.95 2.95 0 0 1 2.75-2.74h5.94V70.6H169.4c.92 3.66 1.83 10.98 1.83 10.98 0 1.37-.91 2.74-2.28 2.74-1.38.46-3.2-.91-3.2-2.28l-2.3-13.72c-.45-.92 0-1.83.47-2.29.91-.46 1.37-.91 2.28-.91l17.84-.46c9.14-.46 17.37-.92 17.37-.92M84.8 97.58c1.37 0 2.74 1.37 2.74 2.29v4.57c-.46.92-.91 4.12-1.83 5.95-.91 1.37-1.37 2.28-2.28 3.2a10.8 10.8 0 0 1-4.12 2.74c-1.83.91-3.66.91-5.49.91h-1.37c-10.52 0-13.72-8.23-14.17-12.34V92.1c.45-6.86 2.74-10.98 5.94-13.27 4.57-2.28 9.6-.45 11.43.46a9.96 9.96 0 0 1 3.66 2.29v-5.03a2.95 2.95 0 0 1 2.74-2.75 2.95 2.95 0 0 1 2.75 2.75v12.34c0 1.38-.46 2.3-1.83 2.75-1.37 0-2.74-.46-3.2-1.37 0 0-2.75-4.12-6.4-5.5-3.2-.9-5.03-1.36-6.4-.45-1.83 1.37-2.75 4.57-3.2 9.15v11.89c0 1.37.9 6.85 8.22 6.85h1.83c1.83 0 2.29 0 3.2-.45.92-.46 1.83-.92 2.3-1.37.9-.92 1.36-1.38 1.82-2.29.46-.92.91-2.74.91-3.66v-4.11a2.95 2.95 0 0 1 2.75-2.75"/><path fill="#00dc0f" d="M343.2 105.32c-.64 6.77-2.67 11.92-6.22 15.66-2.06 2.18-5.12 3.9-10.22 5.73l-.31.11c-2.44.78-5.1 1.18-7.92 1.18-4.28 0-8.25-.84-11.81-2.5-5.27-2.46-7.9-5.9-9.2-8.8-.18-.3-.38-.63-.57-.98a9.77 9.77 0 0 1-1.1-3.14c-.25-1.54-.67-3.87-1.23-6.95-.1-.6-.16-1.19-.16-1.8v-7.8c0-.97.08-2.38.66-6.22.57-3.76.81-4.93 1.26-6.08 1.17-3.13 4.7-12.34 13.22-14.16 2.8-.6 5.95-.67 8.92-.35a11.77 11.77 0 0 1 10.16-5.4c7.43 0 11.54 4.9 12.31 9.74.08.52.12 1.04.12 1.56v12.5c0 .82-.1 1.6-.29 2.36a10.75 10.75 0 0 1 2.74 6.99 69.5 69.5 0 0 1-.37 8.35z"/><path fill="#fff" d="M331.24 97.92c1.4 0 2.79 1.4 2.79 2.33v4.65c-.47.93-.93 4.19-1.86 6.05-.93 1.4-1.4 2.33-2.33 3.26a11 11 0 0 1-4.19 2.79c-1.86.93-3.72.93-5.58.93h-1.4c-10.7 0-13.95-8.38-14.42-12.56V92.34c.47-6.98 2.8-11.17 6.05-13.5 4.65-2.32 9.77-.46 11.63.47 1.4.47 2.8 1.4 3.72 2.33v-5.12a3 3 0 0 1 2.8-2.8 3 3 0 0 1 2.79 2.8v12.56c0 1.4-.47 2.33-1.86 2.8-1.4 0-2.8-.47-3.26-1.4 0 0-2.8-4.19-6.51-5.59-3.26-.93-5.12-1.4-6.52-.46-1.86 1.4-2.79 4.65-3.25 9.3v12.1c0 1.4.93 6.98 8.37 6.98h1.86c1.86 0 2.33 0 3.26-.46.93-.47 1.86-.93 2.32-1.4.94-.93 1.4-1.4 1.87-2.33.46-.93.93-2.79.93-3.72v-4.19a3 3 0 0 1 2.79-2.79z"/><path fill="#fff" stroke="#fff" stroke-width=".5" d="M381.08 74.84c-.7.99-1.78 1.49-3.24 1.49-.76 0-1.43-.15-2.01-.44-.06-1.58-.2-3.91-.44-7-4.96.93-12.87 2.3-23.72 4.11-.52.06-.96.2-1.3.44.28 5.37.43 10.62.43 15.75.59.12 2.45-.15 5.59-.79 1.54-.23 3.9-.79 7.1-1.66.06-.93-.06-2.5-.35-4.68-.3-2.2-.41-3.81-.35-4.86 0-1.1.75-1.66 2.27-1.66 1.75 0 2.68.73 2.8 2.19l1.05 9.97v13.57c.18.23.3.4.35.52-.17.7-.67 1.3-1.48 1.8-.82.5-1.64.74-2.45.74-1.06 0-1.76-.47-2.1-1.4.11-.58.2-1.49.26-2.72v-8.05c-3.7.12-7.88.88-12.52 2.28 0 1.05-.03 3.73-.08 8.05-.06 3.56-.06 5.98 0 7.26 0 .3.23.82.7 1.58 1.22.06 3.12.17 5.68.35l8.93.87c3.56.41 6.53.56 8.93.44.06-.76.2-1.95.43-3.59v-5.16a3.25 3.25 0 0 1-.52-1.66c0-.88.36-1.62 1.1-2.23a3.66 3.66 0 0 1 2.4-.92c.7 0 1.25.2 1.66.61.24.23.3 1 .18 2.28-.06.29-.03.8.09 1.53.11.73.17 1.2.17 1.44 0 .35-.06.92-.17 1.7a27 27 0 0 0-.18 1.28v5.25c0 .06.12.35.35.87.12.53.12.88 0 1.05-.82 1.64-2.05 2.45-3.68 2.45-.41 0-.9-.05-1.5-.17a8.87 8.87 0 0 0-1.04-.18h-5.35c-1.4 0-3.93-.2-7.59-.61a88.2 88.2 0 0 0-9.34-.61h-5.52c-.47 0-1.4.07-2.8.22-1.4.14-2.5.22-3.25.22a8.23 8.23 0 0 1-3.86-.8c-.3-.17-.44-.6-.44-1.3 0-.65.18-1.14.52-1.5a4.84 4.84 0 0 1 3.13-1.3h2.68c.64.11 1.5.05 2.6-.18.35-.17.55-.58.61-1.22.06-.41.06-1.02 0-1.84l-.09-1.58c0-6.06-.02-9.54-.08-10.41a21.7 21.7 0 0 1-4.3-1.14c-.81-.64-1.01-1.52-.6-2.63.35-.93 1.13-1.6 2.36-2 .87-.3 1.75-.56 2.62-.8.18-.64.2-1.42.1-2.36-.13-.81-.21-1.6-.27-2.36-.12-2.5-.32-6.36-.61-11.55-.24 0-1.02.07-2.37.22-1.34.14-2.39.22-3.15.22-2.68 0-4.02-.8-4.02-2.41 0-.23.03-.49.09-.78-.06-.11-.12-.17-.18-.17a7.7 7.7 0 0 1 4.38-1.72h3.15c7.29-.12 19.1-1.8 35.44-5.08.17-.05.46-.02.87.1.41.1.64.2.7.25.47.65.8 1.38.97 2.2-.18 2.56-.1 5.3.26 8.22z"/><path fill="none" d="M348.47 10.42V0h2.08v10.42zM382.5 119.2v-85h73v85z"/><path fill="#ff5300" stroke="#ff5300" stroke-linecap="round" stroke-linejoin="round" stroke-width="15" d="m417.67 64.3-57.04-13.54 5.85-24.67 57.04 13.53z"/><path fill="#fff" d="m369.65 29.95 6.96 1.64c1.38.33 2.39.63 3.03.9.66.28 1.2.66 1.65 1.16a4.42 4.42 0 0 1 1.04 3.92 4.2 4.2 0 0 1-3.33 3.2 4.74 4.74 0 0 1 2.07 2.16c.4.87.48 1.81.24 2.82a5.38 5.38 0 0 1-1.1 2.18 4.7 4.7 0 0 1-4.47 1.7c-.6-.07-2.03-.36-4.27-.88l-5.93-1.4zm2.83 3.74-.95 4.02 2.3.54c1.37.32 2.23.5 2.57.54.62.07 1.14-.02 1.56-.28.43-.27.72-.69.85-1.25.13-.53.08-1-.14-1.41a2.1 2.1 0 0 0-1.18-.93c-.35-.12-1.34-.37-3-.76zm-1.63 6.91-1.1 4.65 3.26.77c1.26.3 2.08.45 2.43.47.55.02 1.02-.1 1.44-.4.41-.3.7-.75.84-1.36.12-.52.1-1-.07-1.43a2.12 2.12 0 0 0-.9-1.04 12.3 12.3 0 0 0-3.06-.99zm20.46 8.6 3.2 1.34a5.57 5.57 0 0 1-2.68 2.3 6.1 6.1 0 0 1-3.69.14c-2.2-.51-3.65-1.61-4.36-3.3a7.4 7.4 0 0 1-.23-4.63c.5-2.09 1.43-3.6 2.8-4.52a5.57 5.57 0 0 1 4.57-.8 5.72 5.72 0 0 1 3.98 2.9c.8 1.5.88 3.52.23 6.07l-8.36-1.98c-.2 1-.12 1.83.27 2.5.38.68.95 1.1 1.72 1.28a2 2 0 0 0 1.42-.12c.42-.2.8-.6 1.13-1.18zm1-3.33c.2-.98.11-1.77-.25-2.37-.35-.62-.87-1-1.55-1.17a2.38 2.38 0 0 0-1.98.37c-.6.42-1 1.08-1.21 2zm13.03-2.44-.62 2.65-2.28-.53-1.2 5.08a12.83 12.83 0 0 0-.36 1.82c0 .17.07.34.2.5.13.14.3.24.52.29.3.07.78.07 1.42-.01l-.32 2.66c-.86.15-1.78.1-2.76-.13a4.37 4.37 0 0 1-1.55-.68 2.47 2.47 0 0 1-.88-1.03c-.15-.38-.2-.85-.16-1.42.01-.4.16-1.2.44-2.37l1.3-5.5-1.53-.36.63-2.65 1.52.35.6-2.5 3.8-1.16-1.05 4.45zm3.9 4.98-2.9-1.26a4.88 4.88 0 0 1 2.39-2.3c.97-.38 2.28-.38 3.92 0 1.49.35 2.55.79 3.2 1.31.65.52 1.05 1.1 1.22 1.71.17.61.08 1.64-.26 3.09l-.95 3.88a14.3 14.3 0 0 0-.42 2.5c-.02.54.05 1.15.2 1.82l-3.3-.77a11.05 11.05 0 0 1-.1-1.49c-.71.42-1.42.7-2.13.82a5.4 5.4 0 0 1-2.18-.07 4.47 4.47 0 0 1-2.83-1.78 3.63 3.63 0 0 1-.48-2.94 3.42 3.42 0 0 1 2.69-2.72c.68-.15 1.63-.2 2.83-.16 1.64.07 2.78.05 3.44-.06l.08-.33c.15-.64.1-1.14-.16-1.48-.25-.35-.81-.62-1.7-.83a2.47 2.47 0 0 0-1.47.02c-.38.16-.74.5-1.08 1.04zm3.83 3.76c-.47.04-1.19.05-2.16.02a6.25 6.25 0 0 0-1.94.16c-.52.2-.83.55-.94 1.03-.11.46-.03.9.24 1.33.27.42.67.7 1.2.82.61.15 1.23.08 1.87-.2.48-.2.83-.5 1.06-.9.15-.26.32-.8.51-1.6z"/></svg>